/* XPM */
/*
 * Copyright (C) 2003 Yuuichi Teranishi <teranisi@gohome.org>
 * Copyright (C) 2003 Kazu Yamamoto <kazu@Mew.org>
 * Copyright notice is the same as Mew's one.
 */
static char * Private_xpm[] = {
"14 14 7 1",
" 	s backgroundColor c None",
".	c #514479E779E7",
"X	c #8E38C30BC71B",
"o	c #30C251445144",
"O	c #61858A288E38",
"+	c #B6DAFFFFFFFF",
"@	c #186130C230C2",
"    .XXXXo    ",
"   .Xo...Xo   ",
"  .Xo    .Xo  ",
"  .Xo    .Xo  ",
"  .Xo    .Xo  ",
"XXOOOOOOOOoooo",
"X++XXXXXXXXOoo",
"X+XXXX@oXXXOoo",
"X+XXX@@@oXXOoo",
"X+XXX@@@oXXOoo",
"X+XXXX@oXXXOoo",
"X+XXXX@oXXXOoo",
"X+XXXXXXXXXOoo",
"XXoooooooooooo"};
